name processed_emg_signals
 datacolumns 7
 datarows 48
 range 2.1189999999999998 2.166 
 endheader
Time	RGLTMED	RRF	RADDLONG	RBF	RTA	RGM
2.1189999999999998	0.0040992912188873	0.0017484749042242	0.0060728735423566	0.0336144636668183	0.0508914727556759	0.0217719715606769
2.12	0.0041400891412769	0.0014538749767588	0.0059924727441002	0.0336746227280473	0.0504515255335378	0.0218745825755137
2.121	0.0041826135838548	0.0011729639420155	0.0059127398407688	0.0337273078513319	0.0500180801929204	0.0219778005632881
2.122	0.0042268799716909	0.0009055698029133	0.0058337024704513	0.0337726212022087	0.049591501924625	0.0220815836173482
2.1229999999999998	0.0042729029836859	0.000651511266024	0.0057553884772987	0.033810670720286	0.0491721567304177	0.0221858847620853
2.1239999999999997	0.0043206965071719	0.000410598224803	0.0056778259146945	0.0338415698413967	0.0487604108338643	0.0222906519654686
2.125	0.0043702735919839	0.0001826322475844	0.0056010430495061	0.0338654372155576	0.0483566300721414	0.0223958281654271
2.126	0.0044216464041345	-3.259293049028572e-05	0.0055250683674041	0.0338823964217856	0.0479611792703052	0.0225013513100049
2.127	0.0044748261792314	-0.0002352909124392	0.0054499305792284	0.0338925756808161	0.0475744215996422	0.0226071544111839
2.128	0.0045298231757772	-0.0004256821421223	0.0053756586283789	0.0338961075667647	0.0471967179218291	0.0227131656122403
2.129	0.00458664662849	-0.0006039934054523	0.0053022816992021	0.0338931287187661	0.0468284261207311	0.0228193082685055
2.13	0.0046453047017842	-0.0007704573309391	0.0052298292263369	0.0338837795535925	0.0464699004238225	0.0229255010414235
2.131	0.0047058044435491	-0.0009253118903579	0.0051583309049717	0.0338682039801916	0.0461214907153997	0.0230316580058302
2.1319999999999997	0.0047681517393654	-0.0010687999003169	0.0050878167019534	0.0338465491169884	0.0457835418439078	0.0231376887704274
2.133	0.0048323512672986	-0.0012011685254764	0.0050183168676826	0.0338189650126806	0.0454563929257752	0.0232434986114745
2.134	0.0048984064534116	-0.0013226687841432	0.0049498619487215	0.0337856043711422	0.0451403766481549	0.0233489886197639
2.135	0.0049663194281298	-0.0014335550569359	0.0048824828010427	0.0337466222809301	0.0448358185729582	0.0234540558609474
2.136	0.0050360909835969	-0.0015340845991899	0.0048162106038353	0.033702175949774	0.0445430364445566	0.0235585935492482
2.137	0.0051077205321553	-0.0016245170577429	0.0047510768737859	0.0336524244443114	0.04426233950349	0.0236624912345273
2.138	0.0051812060661021	-0.0017051139927255	0.004687113479742	0.0335975284352357	0.043994027808453	0.0237656350025916
2.139	0.0052565441188984	-0.0017761384049569	0.0046243526576625	0.0335376499479476	0.0437383915687334	0.0238679076885505
2.1399999999999997	0.0053337297280318	-0.0018378542695231	0.0045628270257533	0.0334729521187359	0.0434957104891626	0.0239691891029425
2.141	0.0054127563997549	-0.0018905260760899	0.0045025695996806	0.0334035989564639	0.0432662531295335	0.0240693562702692
2.142	0.0054936160759174	-0.0019344183764717	0.0044436138077513	0.0333297551096887	0.0430502762803436	0.0241682836794901
2.143	0.0055762991031029	-0.0019697953399499	0.0043859935059403	0.0332515856391179	0.0428480243566376	0.0242658435459419
2.144	0.0056607942042677	-0.0019969203168069	0.0043297429926413	0.0331692557953113	0.0426597288116534	0.0243619060840628
2.145	0.0057470884530625	-0.0020160554105181	0.0042748970230136	0.0330829308015527	0.0424856075719282	0.0244563397902179
2.146	0.0058351672510178	-0.0020274610590257	0.0042214908227874	0.0329927756418417	0.0423258644954851	0.0245490117348527
2.147	0.0059250143077705	-0.0020313956255009	0.0041695601013912	0.0328989548539793	0.0421806888546664	0.0246397878631431
2.1479999999999997	0.0060166116245143	-0.0020281149989811	0.0041191410642557	0.0328016323277518	0.042050254845096	0.024728533303274
2.149	0.0061099394808608	-0.0020178722052531	0.0040702704241596	0.0327009711082363	0.0419347211221298	0.0248151126814467
2.15	0.0062049764252922	-0.0020009170283326	0.004022985411484	0.0325971332042614	0.0418342303660178	0.0248993904426842
2.151	0.0063016992693777	-0.0019774956428742	0.0039773237832566	0.0324902794020299	0.0417489088768686	0.024981231176458
2.152	0.0064000830859103	-0.0019478502578301	0.0039333238308775	0.0323805690838824	0.0416788662003884	0.025060499946096
2.153	0.0065001012111005	-0.0019122187716637	0.0038910243864236	0.0322681600521599	0.0416241947852732	0.0251370626208603
2.154	0.0066017252509483	-0.0018708344394064	0.0038504648274382	0.0321532083581711	0.0415849696730518	0.0252107862095301
2.155	0.0067049250918894	-0.0018239255518269	0.003811685080118	0.0320358681363959	0.0415612482211081	0.0252815391942964
2.1559999999999997	0.0068096689157997	-0.0017717151269617	0.0037747256208146	0.031916291444224	0.0415530698595402	0.0253491918637825
2.157	0.0069159232194205	-0.0017144206142392	0.0037396274757814	0.0317946281076763	0.0415604558824509	0.0254136166440429
2.158	0.0070236528382517	-0.0016522536114044	0.0037064322191043	0.0316710255736352	0.0415834092741889	0.0254746884264355
2.159	0.0071328209749482	-0.0015854195944371	0.0036751819687684	0.0315456287691251	0.0416219145709894	0.0255322848913176
2.16	0.0072433892322381	-0.0015141176606302	0.0036459193808206	0.031418579968157	0.0416759377583658	0.0255862868265519
2.161	0.0073553176503733	-0.0014385402849796	0.0036186876415975	0.0312900186666216	0.0417454262044954	0.0256365784398479
2.162	0.0074685647491118	-0.0013588730900204	0.003593530457994	0.0311600814656792	0.041830308629728	0.0256830476640288
2.163	0.0075830875742203	-0.0012752946292311	0.0035704920457539	0.0310289019640491	0.0419304951122253	0.0257255864544103
2.1639999999999997	0.0076988417484683	-0.0011879761841195	0.0035496171157625	0.0308966106595419	0.0420458771296262	0.0257640910775792
2.165	0.0078157815270709	-0.0010970815750897	0.0035309508583223	0.0307633348600923	0.0421763276365058	0.0257984623909303
2.166	0.0079338598575154	-0.0010027669861869	0.0035145389253894	0.0306291986044627	0.0423217011772773	0.0258286061123642
